<svg xmlns="http://www.w3.org/2000/svg" width="1080" height="1080" viewBox="0 0 1080 1080"><rect width="1080" height="1080" fill="#ffffff"/><svg x="270.0" y="242.6" width="540.0" height="336.2" viewBox="467.39 111.32 518.84 323.07"><polygon fill="#012169" points="788.76 402.2 924.08 354.81 916.49 333.96 781.17 381.35 931.96 254.82 917.69 237.82 766.91 364.35 851.24 224.87 832.02 213.78 747.69 353.26 781.58 161.07 759.72 157.21 725.84 349.4 687.25 121.32 665.39 125.17 703.98 353.25 628.3 222.18 609.09 233.27 684.76 364.35 546.24 248.11 531.97 265.11 670.5 381.35 553.71 338.84 546.12 359.69 662.91 402.2 477.39 402.2 477.39 424.39 662.96 424.39 662.96 402.21 670.54 381.37 684.79 364.38 704 353.3 725.84 349.45 747.67 353.3 766.88 364.38 781.13 381.37 788.72 402.21 788.72 424.39 976.23 424.39 976.23 402.2 788.76 402.2"/></svg><svg x="175.0" y="640.8" width="730.0" height="196.6" viewBox="104.62 511.7 1246.61 335.72"><path fill="#012169" d="M155.7,587.45l-20.43,19.99v38.87h-22.65v-126.6h22.65v55.75h4.66l55.08-55.75h30.21l-49.75,48.42v7.33l46.42,70.85h-27.54l-38.65-58.86Z"/><path fill="#012169" d="M305.82,625.43h27.99v20.88h-91.51v-20.88h27.98l6.66-6.66v-71.52l-6.66-6.66h-27.98v-20.88h91.51v20.88h-27.99l-6.66,6.66v71.52l6.66,6.66Z"/><path fill="#012169" d="M399.47,646.31l-49.31-126.6h25.54l35.32,97.51h6.66l35.31-97.51h25.1l-49.53,126.6h-29.1Z"/><path fill="#012169" d="M558.11,625.43h27.99v20.88h-91.51v-20.88h27.98l6.66-6.66v-71.52l-6.66-6.66h-27.98v-20.88h91.51v20.88h-27.99l-6.66,6.66v71.52l6.66,6.66Z"/><path fill="#012169" d="M634.36,646.31h-22.65v-126.6h52.86c32.43,0,51.31,13.77,51.31,39.09,0,18.66-10,30.87-28.21,35.98v5.11l33.98,46.42h-27.1l-35.32-48.64h-24.88v48.64ZM641.03,540.58l-6.66,6.66v29.54h29.76c19.32,0,28.43-6.66,28.43-17.99s-9.11-18.21-28.43-18.21h-23.1Z"/><path fill="#012169" d="M815.7,598.33v-78.63h22.65v81.74c0,28.43-23.1,47.97-51.53,47.97s-51.53-19.54-51.53-47.97v-81.74h22.65v78.85c0,17.55,12.44,29.76,28.88,29.76s28.87-12.22,28.87-29.98Z"/><path fill="#012169" d="M944.37,598.33v-78.63h22.65v81.74c0,28.43-23.1,47.97-51.53,47.97s-51.53-19.54-51.53-47.97v-81.74h22.65v78.85c0,17.55,12.44,29.76,28.88,29.76s28.87-12.22,28.87-29.98Z"/><path fill="#012169" d="M1036.91,587.45l-20.43,19.99v38.87h-22.65v-126.6h22.65v55.75h4.66l55.08-55.75h30.21l-49.75,48.42v7.33l46.42,70.85h-27.54l-38.65-58.86Z"/><path fill="#012169" d="M1187.04,625.43h27.99v20.88h-91.51v-20.88h27.98l6.66-6.66v-71.52l-6.66-6.66h-27.98v-20.88h91.51v20.88h-27.99l-6.66,6.66v71.52l6.66,6.66Z"/><path fill="#012169" d="M1317.24,646.31l-50.64-91.51h-6.66v91.51h-21.1v-126.6h30.65l45.98,84.62h6.66v-84.62h21.1v126.6h-25.99Z"/><path fill="#012169" d="M467.45,815.43h64.41v20.88h-93.51v-126.6h22.43v99.06l6.66,6.66Z"/><path fill="#012169" d="M629.46,788.33v-78.63h22.65v81.74c0,28.43-23.1,47.97-51.53,47.97s-51.53-19.54-51.53-47.97v-81.74h22.65v78.85c0,17.55,12.44,29.76,28.88,29.76s28.87-12.22,28.87-29.98Z"/><path fill="#012169" d="M722,777.45l-20.43,19.99v38.87h-22.65v-126.6h22.65v55.75h4.66l55.08-55.75h30.21l-49.75,48.42v7.33l46.42,70.85h-27.54l-38.65-58.86Z"/><path fill="#012169" d="M872.13,815.43h27.99v20.88h-91.51v-20.88h27.98l6.66-6.66v-71.52l-6.66-6.66h-27.98v-20.88h91.51v20.88h-27.99l-6.66,6.66v71.52l6.66,6.66Z"/><path fill="#012169" d="M972.39,839.42c-35.98,0-58.86-29.32-58.86-66.41s22.88-66.41,58.86-66.41,58.86,29.32,58.86,66.41-22.88,66.41-58.86,66.41ZM972.39,727.92c-23.77,0-35.09,20.21-35.09,45.09s11.33,45.09,35.09,45.09,35.09-20.21,35.09-45.09-11.33-45.09-35.09-45.09Z"/></svg></svg>